<?xml version="1.0" encoding="utf-8"?>
<!-- Generator: Adobe Illustrator 15.0.0, SVG Export Plug-In . SVG Version: 6.00 Build 0)  -->
<svg version="1.2" baseProfile="tiny" id="图层_1"
	 xmlns="http://www.w3.org/2000/svg" xmlns:xlink="http://www.w3.org/1999/xlink" x="0px" y="0px" width="708.66px"
	 height="708.66px" viewBox="0 0 708.66 708.66" xml:space="preserve">
<g>
	<circle fill="#FFFFFF" cx="353.911" cy="354.5" r="283.465"/>
	<g>
		<path d="M94.727,317.107h18.326c5.789,0,10.174,0.45,13.156,1.352c2.981,0.901,5.389,2.726,7.222,5.473
			c1.833,2.747,2.749,7.173,2.749,13.277c0,4.129-0.647,7.006-1.941,8.635c-1.295,1.628-3.848,2.878-7.658,3.75
			c4.247,0.96,7.127,2.554,8.64,4.78c1.512,2.227,2.269,5.64,2.269,10.238v6.549c0,4.774-0.545,8.311-1.636,10.609
			c-1.091,2.3-2.829,3.871-5.214,4.716c-2.385,0.844-7.272,1.266-14.661,1.266h-21.25V317.107z M113.097,329.194v15.708
			c0.785-0.028,1.396-0.043,1.833-0.043c1.803,0,2.952-0.443,3.447-1.331c0.494-0.888,0.742-3.426,0.742-7.614
			c0-2.211-0.204-3.76-0.611-4.647c-0.408-0.887-0.938-1.446-1.593-1.68C116.261,329.354,114.988,329.224,113.097,329.194z
			 M113.097,355.898v19.767c2.589-0.087,4.239-0.494,4.953-1.222c0.712-0.727,1.069-2.516,1.069-5.367v-6.589
			c0-3.025-0.32-4.857-0.96-5.498C117.519,356.35,115.831,355.985,113.097,355.898z"/>
		<path d="M183.48,359.825h-22.821v12.523c0,2.618,0.189,4.306,0.567,5.062c0.377,0.757,1.105,1.135,2.182,1.135
			c1.337,0,2.232-0.502,2.684-1.505c0.451-1.004,0.676-2.945,0.676-5.825v-7.637h16.712v4.276c0,3.578-0.226,6.327-0.676,8.247
			c-0.451,1.92-1.505,3.971-3.164,6.152s-3.76,3.818-6.305,4.909c-2.546,1.091-5.738,1.636-9.578,1.636
			c-3.724,0-7.011-0.538-9.862-1.614c-2.851-1.076-5.069-2.553-6.654-4.429s-2.683-3.941-3.294-6.196
			c-0.611-2.254-0.916-5.534-0.916-9.84v-16.887c0-5.062,0.683-9.054,2.051-11.978c1.367-2.924,3.606-5.163,6.72-6.72
			c3.112-1.556,6.69-2.334,10.734-2.334c4.945,0,9.025,0.938,12.239,2.814c3.214,1.876,5.469,4.363,6.764,7.461
			c1.294,3.099,1.941,7.455,1.941,13.068V359.825z M165.808,350.4v-4.232c0-2.996-0.16-4.931-0.48-5.804
			c-0.32-0.872-0.975-1.309-1.964-1.309c-1.222,0-1.979,0.371-2.269,1.112c-0.292,0.742-0.437,2.742-0.437,6v4.232H165.808z"/>
		<path d="M225.239,348.35h-15.622v-3.142c0-2.676-0.153-4.37-0.458-5.083c-0.306-0.713-1.069-1.069-2.291-1.069
			c-0.989,0-1.731,0.327-2.225,0.981c-0.495,0.654-0.742,1.637-0.742,2.945c0,1.775,0.123,3.076,0.371,3.905
			c0.247,0.829,0.989,1.739,2.226,2.728c1.236,0.989,3.774,2.429,7.614,4.319c5.12,2.503,8.479,4.858,10.08,7.069
			c1.6,2.211,2.4,5.426,2.4,9.644c0,4.712-0.611,8.269-1.833,10.668c-1.222,2.4-3.266,4.248-6.131,5.542
			c-2.866,1.294-6.32,1.941-10.363,1.941c-4.48,0-8.313-0.698-11.498-2.094c-3.186-1.396-5.375-3.287-6.567-5.673
			c-1.193-2.385-1.789-5.992-1.789-10.821v-2.793h15.622v3.665c0,3.113,0.196,5.135,0.589,6.065
			c0.393,0.932,1.171,1.396,2.334,1.396c1.25,0,2.123-0.313,2.618-0.938c0.494-0.625,0.742-1.941,0.742-3.948
			c0-2.764-0.32-4.495-0.96-5.192c-0.669-0.698-4.087-2.764-10.254-6.196c-5.178-2.909-8.334-5.549-9.469-7.92
			c-1.134-2.371-1.702-5.186-1.702-8.443c0-4.625,0.611-8.036,1.833-10.232c1.222-2.196,3.294-3.891,6.218-5.083
			c2.923-1.193,6.319-1.789,10.188-1.789c3.84,0,7.105,0.487,9.796,1.461c2.69,0.976,4.756,2.263,6.196,3.862
			s2.313,3.084,2.618,4.45c0.306,1.368,0.458,3.506,0.458,6.415V348.35z"/>
		<path d="M249.892,322.125v9.12h4.756v9.163h-4.756v30.98c0,3.812,0.196,5.935,0.589,6.371c0.393,0.437,2.029,0.654,4.909,0.654
			v9.338h-7.112c-4.015,0-6.88-0.167-8.596-0.502c-1.717-0.334-3.229-1.105-4.538-2.313s-2.124-2.589-2.443-4.146
			c-0.32-1.556-0.48-5.214-0.48-10.974v-29.41h-3.796v-9.163h3.796v-9.12H249.892z"/>
		<path d="M259.056,317.107h18.326c5.789,0,10.174,0.45,13.156,1.352c2.981,0.901,5.389,2.726,7.222,5.473
			c1.833,2.747,2.749,7.173,2.749,13.277c0,4.129-0.647,7.006-1.941,8.635c-1.295,1.628-3.848,2.878-7.658,3.75
			c4.247,0.96,7.127,2.554,8.64,4.78c1.512,2.227,2.269,5.64,2.269,10.238v6.549c0,4.774-0.545,8.311-1.636,10.609
			c-1.091,2.3-2.829,3.871-5.214,4.716c-2.385,0.844-7.272,1.266-14.661,1.266h-21.25V317.107z M277.426,329.194v15.708
			c0.785-0.028,1.396-0.043,1.833-0.043c1.803,0,2.952-0.443,3.447-1.331c0.494-0.888,0.742-3.426,0.742-7.614
			c0-2.211-0.204-3.76-0.611-4.647c-0.408-0.887-0.938-1.446-1.593-1.68C280.589,329.354,279.316,329.224,277.426,329.194z
			 M277.426,355.898v19.767c2.589-0.087,4.239-0.494,4.953-1.222c0.712-0.727,1.069-2.516,1.069-5.367v-6.589
			c0-3.025-0.32-4.857-0.96-5.498C281.847,356.35,280.16,355.985,277.426,355.898z"/>
		<path d="M326.035,317.107v9.207h-18.152v-9.207H326.035z M326.035,329.849v57.903h-18.152v-57.903H326.035z"/>
		<path d="M372.419,329.849v44.595c0,6.021-0.139,9.912-0.415,11.672s-1.259,3.622-2.945,5.586
			c-1.688,1.963-4.036,3.461-7.047,4.494c-3.011,1.032-6.8,1.549-11.367,1.549c-5.614,0-10.123-0.953-13.526-2.857
			c-3.404-1.906-5.164-5.651-5.28-11.236h17.105c0,2.56,0.931,3.84,2.792,3.84c1.338,0,2.226-0.393,2.662-1.18
			c0.437-0.786,0.654-2.432,0.654-4.936v-4.368c-1.513,1.371-3.105,2.407-4.777,3.106c-1.674,0.7-3.426,1.05-5.259,1.05
			c-3.171,0-5.781-0.64-7.832-1.92c-2.051-1.279-3.455-2.96-4.211-5.04c-0.757-2.079-1.134-5.04-1.134-8.88v-21.031
			c0-5.498,0.988-9.454,2.967-11.869c1.978-2.414,4.988-3.621,9.032-3.621c2.21,0,4.225,0.451,6.043,1.355
			c1.818,0.903,3.44,2.259,4.865,4.065l1.266-4.374H372.419z M354.746,345.208c0-2.646-0.152-4.334-0.458-5.062
			c-0.305-0.727-0.981-1.091-2.028-1.091c-1.019,0-1.739,0.414-2.16,1.243c-0.422,0.829-0.633,2.466-0.633,4.909v19.461
			c0,2.59,0.159,4.27,0.479,5.04c0.32,0.771,0.989,1.156,2.008,1.156c1.163,0,1.92-0.465,2.269-1.396
			c0.35-0.931,0.523-3.039,0.523-6.327V345.208z"/>
	</g>
	<g>
		<path fill="#268ABC" d="M379.286,328.103h21.886v6.202h-1.446c-1.393,0-2.249,0.075-2.57,0.225
			c-0.515,0.236-0.884,0.569-1.109,0.998c-0.225,0.429-0.337,1.233-0.337,2.412v11.935l13.978-12.969
			c0.621-0.577,0.996-0.968,1.125-1.171c0.129-0.204,0.193-0.381,0.193-0.53c0-0.3-0.124-0.524-0.37-0.675
			c-0.246-0.149-0.873-0.225-1.88-0.225h-1.798v-6.202h20.279v6.202h-0.675c-0.943,0-1.597,0.048-1.961,0.145
			s-0.809,0.306-1.334,0.627c-0.524,0.321-1.205,0.847-2.04,1.575l-10.836,9.377l12.925,17.458c1.113,1.5,1.928,2.389,2.442,2.667
			c0.686,0.386,1.671,0.579,2.957,0.579h0.867v6.202h-22.625v-6.202h0.899c1.65,0,2.651-0.075,3.005-0.226
			c0.354-0.149,0.53-0.343,0.53-0.578c0-0.257-0.332-0.868-0.996-1.832l-7.889-11.245l-6.798,5.883v4.511
			c0,1.109,0.106,1.877,0.321,2.304c0.214,0.427,0.52,0.73,0.916,0.911c0.396,0.182,1.194,0.272,2.395,0.272h1.831v6.202h-21.886
			v-6.202h1.649c1.271,0,2.122-0.102,2.554-0.306c0.431-0.203,0.743-0.53,0.938-0.98c0.172-0.364,0.259-1.242,0.259-2.635v-24.489
			c0-1.328-0.098-2.218-0.291-2.668c-0.194-0.449-0.507-0.787-0.938-1.012c-0.432-0.226-1.207-0.338-2.328-0.338h-1.843V328.103z"/>
		<path fill="#268ABC" d="M431.928,328.103h21.886v6.202h-1.446c-1.393,0-2.249,0.075-2.57,0.225
			c-0.515,0.236-0.884,0.569-1.109,0.998c-0.225,0.429-0.337,1.233-0.337,2.412v11.935l13.978-12.969
			c0.621-0.577,0.996-0.968,1.125-1.171c0.129-0.204,0.193-0.381,0.193-0.53c0-0.3-0.124-0.524-0.37-0.675
			c-0.246-0.149-0.873-0.225-1.88-0.225h-1.798v-6.202h20.279v6.202h-0.675c-0.943,0-1.597,0.048-1.961,0.145
			s-0.809,0.306-1.334,0.627c-0.524,0.321-1.205,0.847-2.04,1.575l-10.836,9.377l12.925,17.458c1.113,1.5,1.928,2.389,2.442,2.667
			c0.686,0.386,1.671,0.579,2.957,0.579h0.867v6.202h-22.625v-6.202h0.899c1.65,0,2.651-0.075,3.005-0.226
			c0.354-0.149,0.53-0.343,0.53-0.578c0-0.257-0.332-0.868-0.996-1.832l-7.889-11.245l-6.798,5.883v4.511
			c0,1.109,0.106,1.877,0.321,2.304c0.214,0.427,0.52,0.73,0.916,0.911c0.396,0.182,1.194,0.272,2.395,0.272h1.831v6.202h-21.886
			v-6.202h1.649c1.271,0,2.122-0.102,2.554-0.306c0.431-0.203,0.743-0.53,0.938-0.98c0.172-0.364,0.259-1.242,0.259-2.635v-24.489
			c0-1.328-0.098-2.218-0.291-2.668c-0.194-0.449-0.507-0.787-0.938-1.012c-0.432-0.226-1.207-0.338-2.328-0.338h-1.843V328.103z"/>
	</g>
	<polygon fill="#268ABC" points="559.561,202.295 559.561,506.705 139.42,418.032 491,418.032 491,301.022 226.776,301.022 	"/>
	<g>
		<path d="M393.854,389.465v1.635c-0.498,1.102-1.128,2.07-1.889,2.908c0.802,0.363,1.689,0.642,2.662,0.835
			c-0.293,0.492-0.645,1.207-1.055,2.145c-1.225-0.34-2.34-0.829-3.348-1.468c-0.92,0.645-1.966,1.163-3.138,1.556
			c-0.182-0.287-0.434-0.715-0.756-1.283c-0.193,0.023-0.381,0.041-0.562,0.053v1.424h-2.145v-1.23l-6.046,0.598l-0.299-1.969
			l1.318-0.07v-6.063h-1.459v-1.723h17.47v1.723h-8.84v5.483l0.983-0.105c-0.047,0.299-0.085,0.601-0.114,0.905
			c0.65-0.193,1.245-0.428,1.784-0.703c-0.686-0.662-1.301-1.421-1.846-2.276l1.02-0.685h-1.336v-1.688H393.854z M379.231,380.466
			h13.286v5.554h-13.286V380.466z M380.742,389.518h2.883v-0.984h-2.883V389.518z M380.742,391.837h2.883v-0.983h-2.883V391.837z
			 M383.625,394.219v-1.046h-2.883v1.274L383.625,394.219z M390.093,381.872h-8.437v0.756h8.437V381.872z M390.093,384.614v-0.756
			h-8.437v0.756H390.093z M390.154,392.944c0.58-0.521,1.063-1.118,1.45-1.792h-3.234
			C388.88,391.837,389.475,392.435,390.154,392.944z"/>
		<path d="M409.953,391.995h-2.461v1.143h4.112v1.758h-4.112v2.32h-2.197v-2.32h-4.112v-1.758h4.112v-1.143H402.8v-0.834
			c-0.492,0.439-1.031,0.869-1.617,1.291c-0.527-0.667-1.025-1.253-1.494-1.757c1.441-0.768,2.531-1.652,3.27-2.654h-1.661
			l-0.765,1.723c-0.381-0.352-0.779-0.709-1.195-1.072v8.524h-2.073v-7.268c-0.439,1.119-0.984,2.229-1.635,3.33
			c-0.188-1.253-0.369-2.325-0.545-3.216c0.932-1.611,1.611-3.223,2.039-4.833h-1.863v-2.215h2.004v-3.094h2.073v3.094h1.652v2.215
			h-1.652v1.238c0.416,0.234,0.873,0.501,1.371,0.8v-0.914h3.155c0.11-0.281,0.213-0.573,0.307-0.878h-2.442v-1.688h2.847
			c0.053-0.281,0.097-0.574,0.132-0.879H401.2v-1.688h3.655c0.023-0.439,0.035-0.896,0.035-1.371h2.355
			c-0.006,0.469-0.023,0.926-0.053,1.371h4.692v1.688h-4.877c-0.041,0.299-0.091,0.592-0.149,0.879h4.64v1.688h-5.07
			c-0.094,0.299-0.193,0.592-0.299,0.878h6.424v1.688h-3.049c0.813,1.061,1.889,1.834,3.225,2.32
			c-0.375,0.574-0.785,1.254-1.23,2.038c-0.563-0.316-1.078-0.67-1.546-1.063V391.995z M405.295,388.938h2.197v1.371h1.389
			c-0.592-0.674-1.09-1.43-1.494-2.268h-2.013c-0.445,0.785-1.014,1.541-1.704,2.268h1.625V388.938z"/>
		<path d="M416.385,379.921l2.619,0.404l-0.791,2.391h2.988v3.427c0.942-1.581,1.845-3.667,2.706-6.257l2.426,0.633
			c-0.258,0.779-0.533,1.541-0.826,2.285h4.534l-0.202,10.114c-0.029,1.09-0.12,1.854-0.272,2.289
			c-0.152,0.437-0.39,0.793-0.712,1.068s-0.771,0.463-1.349,0.563s-1.835,0.149-3.774,0.149c-0.176-1.031-0.398-1.916-0.668-2.654
			c0.867,0.07,1.79,0.105,2.769,0.105c0.281,0,0.524-0.032,0.729-0.097s0.373-0.162,0.505-0.294s0.222-0.28,0.269-0.444
			s0.084-0.885,0.114-2.161l0.079-3.595c0.022-1.119,0.035-2.026,0.035-2.724h-3.059c-0.387,0.82-0.797,1.616-1.23,2.39
			c-0.557-0.363-1.248-0.724-2.073-1.081v10.467h-2.443v-1.266h-2.496v1.371h-2.442v-14.289h1.854
			C416.013,381.567,416.25,380.636,416.385,379.921z M418.758,385.019h-2.496v3.005h2.496V385.019z M416.262,393.331h2.496v-3.005
			h-2.496V393.331z M423.96,387.232c0.844,1.008,1.752,2.232,2.725,3.674l-2.215,1.476c-0.891-1.464-1.74-2.712-2.548-3.743
			L423.96,387.232z"/>
		<path d="M431.465,384.351h6.942c0.082-1.277,0.117-2.754,0.105-4.43h2.671c-0.035,1.74-0.082,3.217-0.141,4.43h7.259v2.425h-7.057
			c1.008,3.914,3.442,6.544,7.303,7.892c-0.832,0.949-1.5,1.758-2.004,2.426c-3.192-1.5-5.416-3.917-6.669-7.25
			c-0.973,3.052-3.22,5.51-6.74,7.373c-0.469-0.598-1.131-1.348-1.986-2.25c4.265-1.934,6.6-4.663,7.004-8.19h-6.688V384.351z"/>
		<path d="M449.198,387.461h4.077v-4.306h-3.11v-2.285h15.694v2.285h-2.829v4.306h3.567v2.285h-3.567v7.206h-2.549v-7.206h-4.71
			c-0.117,2.133-0.518,3.733-1.199,4.803c-0.683,1.068-1.725,1.987-3.124,2.755c-0.656-0.574-1.395-1.172-2.215-1.793
			c1.084-0.58,1.984-1.274,2.702-2.083s1.132-2.035,1.243-3.682h-3.98V387.461z M455.824,387.461h4.657v-4.306h-4.657V387.461z"/>
		<path d="M467.195,387.461h4.077v-4.306h-3.11v-2.285h15.694v2.285h-2.829v4.306h3.567v2.285h-3.567v7.206h-2.549v-7.206h-4.71
			c-0.117,2.133-0.518,3.733-1.199,4.803c-0.683,1.068-1.725,1.987-3.124,2.755c-0.656-0.574-1.395-1.172-2.215-1.793
			c1.084-0.58,1.984-1.274,2.702-2.083s1.132-2.035,1.243-3.682h-3.98V387.461z M473.821,387.461h4.657v-4.306h-4.657V387.461z"/>
	</g>
	<line fill="none" x1="99.061" y1="318.5" x2="99.061" y2="390.5"/>
	<line x1="94.702" y1="406.671" x2="485.03" y2="406.671"/>
</g>
</svg>
